PathFileType   4   (X/Y/Z)
DataRate	CameraRate	NumFrames	NumMarkers	Units	OrigDataRate	OrigDataStartFrame	OrigNumFrames
120.0	120.0	11	37	mm	120.0	55	108
Frame#	Time	midhip	hip_r	hip_l	knee_r	knee_l	ankle_r	ankle_l	midasis	asis_r	asis_l	psis_r	psis_l	epicondLat_r	epicondLat_l	epicondMed_r	epicondMed_l	malleolusLat_r	malleolusLat_l	malleolusMedv_r	malleolusMedv_l	neck	subclavicle_r	subclavicle_l	sternalnotch	xyphoidprocess	thighwand_r	thighwand_l	upperleg1_r	upperleg1_l	upperleg2_r	upperleg2_l	shankwand_r	shankwand_l	lowerleg1_r	lowerleg1_l	toe_r	toe_l
 	 	X1	Y1	Z1	X2	Y2	Z2	X3	Y3	Z3	X4	Y4	Z4	X5	Y5	Z5	X6	Y6	Z6	X7	Y7	Z7	X8	Y8	Z8	X9	Y9	Z9	X10	Y10	Z10	X11	Y11	Z11	X12	Y12	Z12	X13	Y13	Z13	X14	Y14	Z14	X15	Y15	Z15	X16	Y16	Z16	X17	Y17	Z17	X18	Y18	Z18	X19	Y19	Z19	X20	Y20	Z20	X21	Y21	Z21	X22	Y22	Z22	X23	Y23	Z23	X24	Y24	Z24	X25	Y25	Z25	X26	Y26	Z26	X27	Y27	Z27	X28	Y28	Z28	X29	Y29	Z29	X30	Y30	Z30	X31	Y31	Z31	X32	Y32	Z32	X33	Y33	Z33	X34	Y34	Z34	X35	Y35	Z35	X36	Y36	Z36	X37	Y37	Z37

	55	0.54167	1154.084	867.855	-183.747	1139.833	835.843	-114.854	1154.125	852.460	-263.678	1045.855	439.838	-103.707	1310.670	463.370	-212.502	763.591	149.501	-129.001	1351.161	71.171	-173.189	1232.148	930.437	-171.452	1220.619	917.033	-51.404	1243.677	943.841	-291.500	1043.869	969.048	-153.475	1054.702	972.648	-238.988	1048.478	440.861	-45.275	1320.602	459.864	-269.537	1046.966	428.016	-154.624	1298.223	446.383	-152.378	748.886	160.706	-93.530	1336.645	66.081	-209.027	777.829	158.712	-157.711	1353.620	87.163	-146.712	1031.453	1389.444	-162.703	1161.034	1319.692	-112.907	1168.105	1323.440	-222.216	1147.176	1328.794	-165.120	1236.434	1169.019	-176.998	1108.108	527.085	33.722	1419.805	593.505	-216.145	1138.103	587.839	-28.136	1339.999	611.069	-264.389	1125.045	501.750	-50.586	1349.020	524.865	-250.892	844.109	251.162	2.209	1353.216	198.171	-303.768	821.537	229.632	-74.193	1339.082	166.346	-229.213	803.724	41.316	-141.672	1475.186	39.582	-178.524
	56	0.55000	1166.607	868.894	-183.484	1153.932	836.995	-115.963	1167.792	854.684	-264.704	1067.353	438.275	-101.342	1319.871	464.120	-211.846	779.396	154.800	-125.047	1351.542	70.899	-172.706	1246.376	931.706	-172.155	1235.240	917.493	-52.637	1257.513	945.919	-291.672	1057.527	970.891	-152.979	1068.693	975.027	-238.445	1069.530	439.945	-42.906	1331.153	460.826	-268.643	1070.736	424.050	-152.177	1306.714	446.895	-153.062	764.739	166.741	-89.796	1337.655	66.184	-208.844	794.634	161.563	-153.274	1353.955	86.956	-146.725	1044.726	1390.803	-164.114	1174.429	1322.145	-113.123	1181.728	1325.327	-222.053	1160.639	1330.691	-165.661	1250.868	1171.568	-176.010	1126.699	527.173	35.670	1430.103	593.582	-212.177	1156.613	587.370	-26.730	1351.555	612.858	-262.052	1145.629	501.021	-47.974	1360.260	526.403	-249.218	861.001	255.709	5.581	1358.861	198.171	-303.064	838.423	233.658	-70.534	1341.244	166.749	-229.952	809.112	43.207	-140.182	1475.446	39.470	-178.334
	57	0.55833	1179.212	870.096	-182.507	1167.765	838.273	-117.049	1181.278	857.045	-265.690	1089.521	436.818	-98.958	1328.341	464.621	-211.708	796.155	160.316	-121.073	1351.877	70.692	-172.604	1260.345	933.127	-172.774	1249.527	918.099	-53.779	1271.163	948.154	-291.769	1071.071	972.770	-152.328	1082.505	977.446	-237.656	1091.248	439.115	-40.528	1340.821	461.518	-268.264	1093.574	421.508	-149.689	1314.726	447.064	-154.721	781.683	172.863	-85.957	1338.409	66.281	-208.938	811.732	164.206	-148.649	1354.207	86.796	-146.994	1057.532	1392.211	-165.316	1188.146	1325.106	-113.468	1195.545	1326.834	-222.025	1174.048	1332.613	-166.078	1265.864	1174.290	-173.968	1145.755	527.366	37.562	1439.979	593.461	-208.952	1175.808	587.110	-25.240	1363.387	614.139	-260.516	1166.223	500.926	-45.442	1371.486	527.297	-248.289	879.123	259.952	9.035	1363.491	197.990	-302.829	857.015	236.917	-66.565	1343.299	166.778	-230.457	815.984	45.969	-137.986	1475.626	39.450	-178.318
	58	0.56667	1191.425	870.915	-181.929	1181.315	839.640	-118.039	1194.577	859.438	-266.569	1112.244	435.538	-96.574	1336.095	464.852	-212.026	813.652	166.162	-117.225	1352.170	70.508	-172.754	1274.031	934.647	-173.273	1263.448	918.849	-54.753	1284.613	950.446	-291.793	1084.511	974.599	-151.578	1096.108	979.821	-236.684	1113.539	438.420	-38.160	1349.527	461.881	-268.371	1115.895	419.595	-147.509	1323.217	446.856	-156.534	799.492	179.168	-82.149	1338.946	66.339	-209.206	829.471	168.193	-144.097	1354.676	86.768	-147.518	1070.106	1393.340	-166.305	1201.409	1327.216	-113.766	1209.278	1328.692	-222.399	1187.363	1334.481	-166.401	1280.568	1176.839	-173.542	1165.251	527.682	39.371	1449.503	593.017	-206.669	1195.432	586.940	-23.703	1374.583	614.809	-259.490	1186.824	500.581	-43.244	1382.293	528.004	-247.930	898.332	263.993	12.485	1367.245	197.618	-302.946	877.253	239.908	-62.724	1345.677	166.292	-231.083	824.768	49.595	-134.905	1475.759	39.495	-178.425
	59	0.57500	1204.092	872.112	-181.839	1194.568	841.064	-118.868	1207.682	861.756	-267.290	1135.439	434.509	-94.206	1343.198	464.840	-212.682	831.753	172.360	-113.636	1352.434	70.334	-173.042	1287.418	936.213	-173.631	1276.981	919.745	-55.511	1297.855	952.681	-291.752	1097.841	976.322	-150.823	1109.458	982.092	-235.666	1136.330	437.922	-35.812	1357.273	461.914	-268.872	1139.298	416.993	-145.509	1330.180	446.568	-159.137	818.006	185.683	-78.515	1339.330	66.358	-209.559	847.170	173.943	-140.205	1355.222	86.857	-148.114	1083.426	1394.421	-167.086	1214.515	1328.884	-114.219	1222.889	1330.446	-222.752	1200.561	1336.271	-166.685	1294.526	1178.840	-173.664	1185.147	528.160	41.093	1458.701	592.176	-205.405	1214.642	587.005	-22.437	1384.851	615.004	-259.324	1207.858	500.004	-41.433	1391.516	528.285	-248.653	918.498	267.949	15.844	1370.323	197.095	-303.289	897.586	243.942	-58.970	1347.575	165.539	-231.793	835.883	53.954	-130.808	1475.868	39.577	-178.608
	60	0.58333	1217.207	873.778	-182.082	1207.531	842.514	-119.499	1220.589	863.907	-267.826	1159.045	433.799	-91.865	1349.752	464.644	-213.521	850.443	178.814	-110.394	1352.693	70.182	-173.371	1300.517	937.762	-173.856	1290.146	920.770	-56.044	1310.888	954.755	-291.669	1111.044	977.918	-150.166	1122.535	984.233	-234.767	1159.555	437.685	-33.497	1364.146	461.670	-269.628	1165.012	413.994	-143.244	1336.989	446.245	-161.484	837.162	192.329	-75.167	1339.631	66.365	-209.919	865.297	180.299	-136.807	1355.513	86.913	-148.542	1096.935	1395.905	-168.038	1227.644	1330.751	-115.235	1235.916	1331.932	-222.326	1213.645	1337.988	-166.943	1307.614	1180.505	-173.445	1205.390	528.846	42.739	1467.554	590.926	-205.107	1233.583	587.899	-21.211	1394.200	614.906	-259.909	1229.832	499.993	-39.487	1399.851	527.979	-249.891	939.516	271.910	19.029	1372.933	196.482	-303.738	917.615	249.134	-55.595	1348.566	165.115	-232.482	849.683	58.811	-125.647	1475.966	39.673	-178.826
	61	0.59167	1230.202	875.429	-182.420	1220.214	843.968	-119.926	1233.286	865.826	-268.183	1182.993	433.472	-89.575	1355.883	464.340	-214.383	869.795	185.310	-107.538	1352.966	70.072	-173.666	1313.343	939.248	-173.984	1302.974	921.909	-56.381	1323.711	956.586	-291.586	1124.086	979.401	-149.694	1135.330	986.238	-234.148	1183.141	437.772	-31.233	1370.303	461.226	-270.475	1192.091	411.151	-140.546	1344.040	446.062	-163.069	856.980	198.923	-72.176	1339.898	66.393	-210.227	884.936	186.619	-133.625	1355.571	86.980	-148.910	1109.839	1397.601	-169.211	1239.708	1332.094	-115.407	1249.005	1333.849	-222.046	1226.635	1339.640	-167.163	1320.045	1182.065	-173.477	1225.925	529.789	44.333	1476.024	589.307	-205.598	1253.273	588.904	-20.214	1402.839	614.607	-261.029	1252.607	500.753	-37.191	1407.673	527.295	-251.233	961.295	275.896	21.964	1375.238	195.836	-304.193	937.654	254.790	-52.695	1349.554	165.072	-233.137	866.397	63.868	-119.471	1476.057	39.761	-179.052
	62	0.60000	1242.952	877.016	-183.149	1232.635	845.412	-120.166	1245.756	867.485	-268.387	1207.188	433.586	-87.373	1361.707	463.996	-215.128	889.926	191.546	-105.048	1353.267	70.015	-173.879	1325.923	940.626	-174.063	1315.522	923.130	-56.573	1336.324	958.123	-291.553	1136.926	980.807	-149.462	1147.914	988.123	-233.867	1206.995	438.241	-29.059	1375.924	460.672	-271.260	1218.120	409.986	-138.325	1349.246	446.222	-164.298	877.533	205.199	-69.552	1340.162	66.467	-210.440	906.194	192.746	-130.863	1355.697	87.203	-149.324	1122.494	1399.285	-170.524	1251.232	1333.323	-114.497	1262.770	1335.875	-222.340	1239.546	1341.252	-167.336	1332.708	1183.689	-172.774	1246.693	531.031	45.898	1484.071	587.387	-206.620	1273.677	590.074	-19.170	1410.953	613.391	-262.683	1275.231	502.275	-35.123	1414.154	526.178	-252.779	983.748	279.842	24.605	1377.343	195.199	-304.575	958.672	260.344	-49.877	1351.280	165.167	-233.814	886.089	68.829	-112.441	1476.153	39.827	-179.267
	63	0.60833	1255.162	878.262	-184.298	1244.799	846.852	-120.251	1257.985	868.888	-268.472	1231.519	434.185	-85.306	1367.296	463.662	-215.661	910.977	197.195	-102.860	1353.605	70.019	-173.988	1338.282	941.878	-174.142	1327.832	924.415	-56.679	1348.731	959.342	-291.605	1149.543	982.184	-149.497	1160.349	989.915	-233.940	1231.011	439.137	-27.019	1381.159	460.076	-271.866	1242.732	410.433	-136.664	1353.987	446.185	-164.783	898.932	210.848	-67.244	1340.440	66.607	-210.540	928.622	198.010	-128.419	1356.059	87.368	-149.568	1134.954	1400.943	-171.755	1263.844	1335.179	-114.221	1276.582	1337.322	-222.485	1252.372	1342.848	-167.435	1346.255	1185.475	-171.285	1267.628	532.602	47.444	1491.668	585.235	-207.894	1294.225	592.035	-17.754	1418.366	611.348	-264.205	1297.432	503.947	-33.403	1419.882	524.837	-254.052	1006.835	283.604	26.944	1379.303	194.593	-304.836	981.074	265.796	-47.548	1352.926	165.269	-234.351	908.642	73.444	-104.807	1476.267	39.867	-179.457
	64	0.61667	1266.824	879.169	-185.734	1256.724	848.301	-120.216	1269.972	870.062	-268.472	1255.866	435.292	-83.412	1372.665	463.367	-215.949	933.084	201.950	-100.867	1353.989	70.086	-173.993	1350.446	943.007	-174.258	1339.947	925.761	-56.764	1360.945	960.252	-291.752	1161.947	983.571	-149.799	1172.683	991.646	-234.335	1255.076	440.485	-25.149	1386.101	459.490	-272.238	1267.735	411.014	-134.876	1358.677	446.872	-164.324	921.299	215.581	-65.155	1340.745	66.817	-210.529	951.642	202.107	-126.209	1356.532	87.348	-149.503	1147.195	1402.370	-172.410	1276.958	1336.960	-114.639	1289.811	1338.697	-222.453	1265.111	1344.427	-167.435	1359.955	1187.308	-170.737	1288.657	534.525	48.963	1498.808	582.906	-209.175	1314.908	594.312	-16.296	1425.704	609.746	-265.650	1319.861	505.658	-31.617	1425.625	523.442	-254.671	1030.526	287.002	29.012	1381.141	194.029	-304.953	1004.535	270.572	-45.834	1354.151	165.079	-234.225	933.799	77.537	-96.859	1476.418	39.882	-179.609
	65	0.62500	1278.541	880.188	-186.588	1268.422	849.785	-120.109	1281.729	871.059	-268.431	1280.109	436.905	-81.716	1377.789	463.128	-216.020	956.334	205.578	-98.962	1354.413	70.208	-173.905	1362.431	944.040	-174.439	1351.885	927.179	-56.885	1372.977	960.901	-291.994	1174.167	985.003	-150.339	1184.927	993.344	-235.009	1279.085	442.292	-23.473	1390.788	458.946	-272.389	1293.621	411.220	-132.599	1363.392	447.419	-163.972	944.719	219.168	-63.179	1341.078	67.087	-210.422	975.453	205.277	-124.260	1357.009	87.335	-149.191	1159.469	1403.878	-172.888	1289.031	1338.318	-114.684	1302.958	1340.392	-222.319	1277.761	1345.985	-167.335	1372.728	1188.913	-170.378	1309.718	536.812	50.430	1505.517	580.438	-210.302	1335.029	596.464	-15.050	1432.764	608.560	-266.850	1342.424	508.049	-29.643	1431.332	521.936	-255.083	1054.794	289.868	30.861	1382.864	193.508	-304.933	1029.298	273.543	-44.584	1355.572	164.336	-233.836	961.218	81.001	-88.882	1476.612	39.880	-179.713
